<svg width="33" height="51" viewBox="0 0 33 51" fill="none" xmlns="http://www.w3.org/2000/svg">
<path d="M4.228 35.27C5.264 35.27 6.16933 35.4707 6.944 35.872C7.728 36.264 8.33 36.8333 8.75 37.58C9.17933 38.3173 9.394 39.1807 9.394 40.17C9.394 41.1593 9.17933 42.018 8.75 42.746C8.33 43.474 7.728 44.034 6.944 44.426C6.16933 44.8087 5.264 45 4.228 45H1.05V35.27H4.228ZM4.228 43.698C5.36667 43.698 6.23933 43.39 6.846 42.774C7.45267 42.158 7.756 41.29 7.756 40.17C7.756 39.0407 7.45267 38.1587 6.846 37.524C6.23933 36.8893 5.36667 36.572 4.228 36.572H2.646V43.698H4.228ZM17.9618 37.286V45H16.3658V44.09C16.1138 44.4073 15.7824 44.6593 15.3718 44.846C14.9704 45.0233 14.5411 45.112 14.0838 45.112C13.4771 45.112 12.9311 44.986 12.4458 44.734C11.9698 44.482 11.5918 44.1087 11.3118 43.614C11.0411 43.1193 10.9058 42.522 10.9058 41.822V37.286H12.4878V41.584C12.4878 42.2747 12.6604 42.8067 13.0058 43.18C13.3511 43.544 13.8224 43.726 14.4198 43.726C15.0171 43.726 15.4884 43.544 15.8338 43.18C16.1884 42.8067 16.3658 42.2747 16.3658 41.584V37.286H17.9618ZM20.8796 36.264C20.5902 36.264 20.3476 36.166 20.1516 35.97C19.9556 35.774 19.8576 35.5313 19.8576 35.242C19.8576 34.9527 19.9556 34.71 20.1516 34.514C20.3476 34.318 20.5902 34.22 20.8796 34.22C21.1596 34.22 21.3976 34.318 21.5936 34.514C21.7896 34.71 21.8876 34.9527 21.8876 35.242C21.8876 35.5313 21.7896 35.774 21.5936 35.97C21.3976 36.166 21.1596 36.264 20.8796 36.264ZM21.6636 37.286V45H20.0676V37.286H21.6636ZM23.227 41.108C23.227 40.3333 23.3857 39.6473 23.703 39.05C24.0297 38.4527 24.4683 37.9907 25.019 37.664C25.579 37.328 26.1997 37.16 26.881 37.16C27.385 37.16 27.8797 37.272 28.365 37.496C28.8597 37.7107 29.2517 38 29.541 38.364V34.64H31.151V45H29.541V43.838C29.2797 44.2113 28.9157 44.5193 28.449 44.762C27.9917 45.0047 27.4643 45.126 26.867 45.126C26.195 45.126 25.579 44.958 25.019 44.622C24.4683 44.2767 24.0297 43.8007 23.703 43.194C23.3857 42.578 23.227 41.8827 23.227 41.108ZM29.541 41.136C29.541 40.604 29.429 40.142 29.205 39.75C28.9903 39.358 28.7057 39.0593 28.351 38.854C27.9963 38.6487 27.6137 38.546 27.203 38.546C26.7923 38.546 26.4097 38.6487 26.055 38.854C25.7003 39.05 25.411 39.344 25.187 39.736C24.9723 40.1187 24.865 40.576 24.865 41.108C24.865 41.64 24.9723 42.1067 25.187 42.508C25.411 42.9093 25.7003 43.2173 26.055 43.432C26.419 43.6373 26.8017 43.74 27.203 43.74C27.6137 43.74 27.9963 43.6373 28.351 43.432C28.7057 43.2267 28.9903 42.928 29.205 42.536C29.429 42.1347 29.541 41.668 29.541 41.136Z" fill="#F26675"/>
<path d="M14.9804 0C16.7778 0 18.3546 0.349092 19.7108 1.04728C21.0833 1.74546 22.1373 2.74403 22.8725 4.04298C23.6242 5.32569 24 6.81948 24 8.52435C24 10.2292 23.6242 11.723 22.8725 13.0057C22.1373 14.2722 21.0833 15.2545 19.7108 15.9527C18.3546 16.6509 16.7778 17 14.9804 17H9V0H14.9804ZM14.8578 14.1017C16.6552 14.1017 18.0441 13.6146 19.0245 12.6404C20.0049 11.6662 20.4951 10.2942 20.4951 8.52435C20.4951 6.75454 20.0049 5.3744 19.0245 4.38395C18.0441 3.37727 16.6552 2.87392 14.8578 2.87392H12.4314V14.1017H14.8578Z" fill="#554886"/>
<g filter="url(#filter0_d_2_342)">
<rect x="9" y="19" width="15" height="3" fill="#554886"/>
<rect x="9.5" y="19.5" width="14" height="2" stroke="black"/>
</g>
<defs>
<filter id="filter0_d_2_342" x="5" y="19" width="23" height="11" filterUnits="userSpaceOnUse" color-interpolation-filters="sRGB">
<feFlood flood-opacity="0" result="BackgroundImageFix"/>
<feColorMatrix in="SourceAlpha" type="matrix" values="0 0 0 0 0 0 0 0 0 0 0 0 0 0 0 0 0 0 127 0" result="hardAlpha"/>
<feOffset dy="4"/>
<feGaussianBlur stdDeviation="2"/>
<feComposite in2="hardAlpha" operator="out"/>
<feColorMatrix type="matrix" values="0 0 0 0 0 0 0 0 0 0 0 0 0 0 0 0 0 0 0.25 0"/>
<feBlend mode="normal" in2="BackgroundImageFix" result="effect1_dropShadow_2_342"/>
<feBlend mode="normal" in="SourceGraphic" in2="effect1_dropShadow_2_342" result="shape"/>
</filter>
</defs>
</svg>
