<svg width="28" height="30" viewBox="0 0 28 30" fill="none" xmlns="http://www.w3.org/2000/svg">
<path d="M9.04377 17.5847L7.49015 25.8476L0.667603 28.3492V30.0466H27.4271L17.7998 25.6202L19.3917 23.0807L14.8844 14.4149L12.3409 11.5912C12.3409 11.5912 10.3708 10.838 10.2192 10.838C10.0675 10.838 8.09658 12.9606 8.09658 12.9606L9.04377 17.5847Z" fill="#FFA787"/>
<g style="mix-blend-mode:multiply" opacity="0.4">
<path d="M8.09662 16.5991L15.0707 23.4974L17.7998 25.6201L18.708 23.9265L11.1597 13.4039L8.09662 16.5991Z" fill="#FFA787"/>
</g>
<path d="M25.14 17.5847C24.7514 17.7889 24.3416 17.95 23.9181 18.0653C23.818 18.0722 23.7119 18.0759 23.5989 18.0775C23.5989 18.0775 24.2433 18.5702 23.4473 19.8968L23.0683 20.8065L19.0505 23.0807L16.3215 19.6694L14.1989 16.227L13.9715 11.7098V8.90189L14.4264 7.76784L15.336 6.25172C15.336 6.25172 17.0796 4.58398 17.2312 4.58398C17.3828 4.58398 20.6425 5.41786 20.6425 5.41786L22.386 6.47914L22.6892 7.1614C22.74 7.31301 23.6648 9.95332 24.2766 11.6999C24.6208 12.6816 24.5025 13.3684 24.0916 14.3251L23.7884 14.7799C23.7884 14.7799 24.0689 15.1309 24.1538 15.215C24.7178 15.9162 25.6836 17.2535 25.14 17.5847Z" fill="#FFA787"/>
<path d="M12.4175 12.0508C12.4175 12.0508 13.8578 13.0363 13.0997 16.9782C13.0997 16.9782 11.9511 20.2934 15.027 21.4785L18.7081 23.9265C18.8164 23.9987 18.9327 24.0582 19.0546 24.1038C19.8303 24.3939 22.6824 25.3301 22.8787 23.4975C22.8787 23.4975 22.4997 21.2273 23.1062 20.7685L22.0449 20.6169C22.0449 20.6169 21.8013 22.2003 20.6045 21.437C20.4708 21.3512 20.358 21.2364 20.2745 21.1013C20.1911 20.9661 20.139 20.8139 20.1221 20.6559C20.0351 19.8603 19.6745 18.1755 18.1788 17.8879C17.6499 17.7158 17.1418 17.4857 16.6636 17.2017C15.9497 16.7711 15.4005 16.1139 15.1036 15.3348C14.8067 14.5557 14.7792 13.6996 15.0255 12.9031L15.6771 10.7621C15.6771 10.7621 14.3126 9.99302 14.1989 9.96063C14.0852 9.92825 12.1901 10.6863 12.1901 10.6863L12.4175 12.0508Z" fill="#5E1212"/>
<path d="M18.253 6.54469C19.2237 6.53743 20.8477 6.68034 22.0449 7.57826C22.0449 7.57826 23.7247 8.59632 23.9559 7.17033C24.0096 6.81121 23.9559 6.44421 23.8014 6.11559C23.6469 5.78698 23.3985 5.51147 23.0876 5.32381C20.8648 3.95526 14.3385 0.598813 9.68848 5.00085C9.68848 5.00085 6.39387 7.54952 6.39072 10.17C6.39235 10.8661 6.33686 11.5612 6.2248 12.2482C5.90829 14.147 5.80155 17.5302 9.04373 17.5847C9.04373 17.5847 10.0296 12.5436 13.0618 12.2403C13.6778 12.0547 14.2838 11.8373 14.8774 11.589C15.4422 11.3495 15.9165 10.9371 16.232 10.4109C16.5474 9.88471 16.6878 9.272 16.6328 8.66097C16.6179 8.49815 16.6113 8.33466 16.6131 8.17116C16.6195 7.73947 16.7948 7.32747 17.1013 7.02345C17.4079 6.71942 17.8213 6.54756 18.253 6.54469Z" fill="#5E1212"/>
<path d="M10.4466 5.45577C10.2192 5.45577 12.8724 2.42354 10.8256 2.0445C10.8256 2.0445 7.57695 -0.381293 6.05534 2.0445C6.05534 2.0445 2.94179 4.69771 4.45791 5.83481C4.45791 5.83481 5.20099 8.45388 7.82379 6.95483L9.30949 8.1848L10.674 6.36545L10.4466 5.45577Z" fill="#5E1212"/>
<g style="mix-blend-mode:multiply">
<path d="M25.14 17.5847C24.7514 17.7888 24.3416 17.95 23.9181 18.0653C23.814 18.0937 23.7048 18.0978 23.5989 18.0774C23.5264 18.0683 23.4567 18.0434 23.3948 18.0045C23.3328 17.9656 23.2802 17.9137 23.2404 17.8523C23.2007 17.7909 23.1749 17.7216 23.1648 17.6491C23.1547 17.5767 23.1606 17.503 23.182 17.4331C23.182 17.3573 23.7884 14.7798 23.7884 14.7798C23.7884 14.7798 23.8839 14.8867 24.0265 15.0588C24.0651 15.1058 24.1083 15.1581 24.1538 15.215C24.7178 15.9162 25.6836 17.2534 25.14 17.5847Z" fill="#FF8D69"/>
</g>
<path d="M14.1611 13.3775C14.1611 14.78 14.1832 16.9783 12.9482 16.9783C11.7131 16.9783 9.68851 14.78 9.68851 13.3775C9.68851 11.975 10.6897 10.838 11.9248 10.838C13.1599 10.838 14.1611 11.975 14.1611 13.3775Z" fill="#FFA787"/>
<g style="mix-blend-mode:multiply">
<path d="M11.8315 11.9596C10.9591 12.2084 9.69277 12.8449 11.319 14.6353C11.3993 14.7236 11.4856 14.8063 11.5771 14.8829L12.7207 15.8411C12.9591 15.3644 13.0937 14.8426 13.1158 14.31C13.1378 13.7774 13.0468 13.2463 12.8486 12.7514L12.7029 12.3876C12.6363 12.2211 12.5104 12.0851 12.3494 12.0061C12.1885 11.9271 12.0039 11.9105 11.8315 11.9596Z" fill="#FF8D69"/>
</g>
<path d="M0.667419 30.0465V28.3492L7.11098 25.241L17.7998 25.6201L27.427 30.0465H0.667419Z" fill="#F98B91"/>
<path d="M17.7998 25.6202L7.32536 22.4019C7.12178 22.3389 6.90738 22.3187 6.69561 22.3425C6.48385 22.3662 6.27928 22.4335 6.09473 22.5401C5.91017 22.6466 5.74962 22.7901 5.62314 22.9616C5.49665 23.1331 5.40696 23.3289 5.35969 23.5367C5.24723 24.0314 5.25347 24.5456 5.37791 25.0374C5.50235 25.5292 5.74145 25.9846 6.07564 26.3662C6.07564 26.3662 15.374 27.8185 17.7998 25.6202Z" fill="#F26C7F"/>
<g style="mix-blend-mode:multiply" opacity="0.5">
<path d="M17.7998 25.6202L7.32536 22.4019C7.12178 22.3389 6.90738 22.3187 6.69561 22.3425C6.48385 22.3662 6.27928 22.4335 6.09473 22.5401C5.91017 22.6466 5.74962 22.7901 5.62314 22.9616C5.49665 23.1331 5.40696 23.3289 5.35969 23.5367C5.24723 24.0314 5.25347 24.5456 5.37791 25.0374C5.50235 25.5292 5.74145 25.9846 6.07564 26.3662C6.07564 26.3662 15.374 27.8185 17.7998 25.6202Z" fill="#F3626B"/>
</g>
<path d="M6.92955 19.2745C6.90407 19.2745 6.87932 19.2659 6.85927 19.2502C6.83923 19.2345 6.82505 19.2124 6.81901 19.1877C6.81297 19.1629 6.81541 19.1369 6.82595 19.1137C6.83649 19.0905 6.85452 19.0715 6.87714 19.0597L7.41889 18.7791C7.73626 18.635 8.02984 18.4434 8.28955 18.2109C8.50334 17.9921 8.65329 17.719 8.72319 17.4212C8.7931 17.1234 8.78031 16.8121 8.68619 16.521C8.67656 16.4925 8.67868 16.4612 8.69209 16.4342C8.70549 16.4072 8.72908 16.3866 8.75767 16.377C8.78626 16.3673 8.8175 16.3694 8.84452 16.3828C8.87155 16.3962 8.89213 16.4198 8.90176 16.4484C9.00887 16.7797 9.02343 17.134 8.94384 17.473C8.86425 17.812 8.69355 18.1228 8.45019 18.3718C8.17457 18.6215 7.86197 18.827 7.52349 18.9811L6.98182 19.2617C6.96567 19.2701 6.94775 19.2745 6.92955 19.2745Z" fill="#5E1212"/>
<path d="M6.83161 17.9841C6.76998 17.9841 6.70851 17.9779 6.64816 17.9653C6.6142 17.9616 6.58193 17.9486 6.55494 17.9277C6.52795 17.9067 6.5073 17.8787 6.4953 17.8467C6.48479 17.8121 6.48727 17.7748 6.50227 17.7418C6.51728 17.7089 6.54378 17.6826 6.57681 17.6678C6.60657 17.6533 6.64068 17.6506 6.67236 17.6602C6.70404 17.6697 6.73097 17.6908 6.74781 17.7193C6.75405 17.7297 6.75857 17.7411 6.76121 17.753C6.92048 17.7663 7.07993 17.7295 7.21727 17.6478C7.35461 17.5661 7.46296 17.4435 7.52719 17.2971C7.5477 17.2461 7.56487 17.1899 7.58301 17.1304C7.59767 17.0261 7.63609 16.9266 7.69529 16.8396C7.75448 16.7525 7.83288 16.6802 7.92444 16.6282C7.93825 16.6225 7.95303 16.6196 7.96797 16.6196C7.9829 16.6197 7.99767 16.6226 8.01145 16.6284C8.02523 16.6342 8.03774 16.6426 8.04827 16.6531C8.0588 16.6637 8.06715 16.6763 8.07282 16.6901C8.0785 16.7039 8.0814 16.7187 8.08136 16.7336C8.08132 16.7486 8.07834 16.7633 8.07259 16.7771C8.06684 16.7909 8.05844 16.8034 8.04785 16.8139C8.03727 16.8245 8.02471 16.8328 8.0109 16.8385C7.89519 16.8861 7.84922 17.037 7.8005 17.1967C7.78178 17.2582 7.76237 17.3219 7.73817 17.382C7.6622 17.5598 7.53591 17.7115 7.37485 17.8185C7.21378 17.9255 7.02496 17.983 6.83161 17.9841Z" fill="#5E1212"/>
<path d="M6.2826 6.05033C6.27304 6.05032 6.2635 6.0491 6.25424 6.0467C5.8948 5.95338 5.57306 5.75109 5.33318 5.46761C5.223 5.35044 5.14049 5.21007 5.09172 5.05681C5.04295 4.90356 5.02915 4.74132 5.05134 4.58203C5.13933 4.29433 5.31125 4.03948 5.54505 3.85014C5.76195 3.63427 5.96679 3.43038 5.96664 3.16914C5.96663 3.13899 5.97859 3.11006 5.9999 3.08873C6.02121 3.06739 6.05012 3.05539 6.08028 3.05536H6.08036C6.1105 3.05535 6.13942 3.06732 6.16074 3.08863C6.18206 3.10994 6.19405 3.13885 6.19406 3.16899C6.19421 3.52485 5.94577 3.77215 5.70547 4.01134C5.50543 4.17083 5.35567 4.38467 5.27417 4.62719C5.25915 4.7529 5.27225 4.88038 5.31254 5.0004C5.35284 5.12043 5.41931 5.22999 5.50714 5.32117C5.71647 5.56849 5.9972 5.74499 6.31081 5.82645C6.33763 5.83333 6.36101 5.84976 6.37658 5.87266C6.39215 5.89556 6.39884 5.92335 6.39538 5.95082C6.39191 5.97829 6.37855 6.00355 6.35778 6.02187C6.33702 6.04019 6.31029 6.05031 6.2826 6.05032V6.05033Z" fill="#C47076"/>
<path d="M21.5118 22.4158C21.5069 22.4158 21.5021 22.4155 21.4973 22.4149C20.6125 22.3023 19.7721 22.1519 19.2147 21.5552C18.8971 21.1652 18.6657 20.7124 18.5355 20.2266C18.4442 19.9374 18.33 19.6558 18.1941 19.3846C17.9852 18.9976 17.6846 18.6677 17.3185 18.424C17.2469 18.3599 17.1607 18.3143 17.0674 18.2912C16.9741 18.2681 16.8766 18.2682 16.7834 18.2916C16.7557 18.3033 16.7244 18.3036 16.6964 18.2923C16.6685 18.2811 16.6461 18.2592 16.6343 18.2314C16.6225 18.2037 16.6222 18.1724 16.6334 18.1444C16.6447 18.1165 16.6666 18.0941 16.6943 18.0823C16.822 18.042 16.9578 18.0349 17.089 18.0615C17.2202 18.0882 17.3425 18.1477 17.4443 18.2346C17.8415 18.499 18.1677 18.8569 18.3943 19.2767C18.5363 19.5586 18.6554 19.8515 18.7504 20.1524C18.8704 20.608 19.0852 21.0331 19.3808 21.3999C19.8866 21.9412 20.6841 22.0822 21.526 22.1893C21.5547 22.1929 21.5809 22.2074 21.5993 22.2296C21.6177 22.2519 21.627 22.2804 21.6252 22.3092C21.6234 22.3381 21.6106 22.3651 21.5896 22.3849C21.5685 22.4047 21.5407 22.4158 21.5118 22.4158V22.4158Z" fill="#C47076"/>
<path d="M20.3869 23.491H20.3869C19.6828 23.4888 18.9965 23.2694 18.4218 22.8626C18.163 22.6689 17.9179 22.4573 17.6885 22.2296C17.3279 21.8268 16.8795 21.5125 16.378 21.3108C16.3492 21.3018 16.3252 21.2818 16.3113 21.2551C16.2973 21.2284 16.2945 21.1973 16.3034 21.1685C16.3124 21.1397 16.3324 21.1157 16.3591 21.1017C16.3857 21.0877 16.4168 21.0848 16.4456 21.0937C16.9805 21.3055 17.4593 21.6377 17.8449 22.0645C18.0668 22.2848 18.3036 22.4896 18.5537 22.6773C19.0899 23.0568 19.7301 23.2616 20.387 23.2636C20.4169 23.264 20.4455 23.2761 20.4665 23.2974C20.4875 23.3187 20.4993 23.3474 20.4993 23.3773C20.4993 23.4072 20.4875 23.436 20.4665 23.4572C20.4454 23.4785 20.4169 23.4906 20.3869 23.491V23.491Z" fill="#C47076"/>
</svg>
